<svg width="16" height="28" viewBox="0 0 16 28" fill="none" xmlns="http://www.w3.org/2000/svg">
<path fill-rule="evenodd" clip-rule="evenodd" d="M4.58728 12.9505C4.0753 13.3751 3.81931 13.7928 3.81931 14.2037C3.81931 14.6146 4.08593 15.0802 4.61916 15.6007L14.5576 25.6012C15.0715 26.1184 15.0798 26.9508 14.5763 27.478C14.0877 27.9897 13.2769 28.0084 12.7653 27.5198C12.7583 27.5132 12.7514 27.5064 12.7446 27.4996L0.855842 15.6238C0.0743691 14.8431 0.0736815 13.5768 0.854306 12.7953C0.856506 12.7931 0.85871 12.7909 0.86092 12.7887L12.9372 0.811666C13.4529 0.300275 14.2854 0.30371 14.7968 0.81934C14.8039 0.826454 14.8109 0.833648 14.8178 0.840921C15.3326 1.38435 15.3206 2.23908 14.7908 2.76787L4.58728 12.9505Z" fill="white"/>
</svg>
