<svg width="59" height="28" viewBox="0 0 59 28" fill="none" xmlns="http://www.w3.org/2000/svg">
<path fill-rule="evenodd" clip-rule="evenodd" d="M44.2649 0.00799973C48.2469 -0.11 51.1651 1.094 53.5241 2.85C55.6488 4.432 57.5986 6.903 58.4212 9.943C59.5343 14.063 58.9611 16.535 57.5312 19.913C57.0335 21.09 55.7313 22.648 54.9651 23.417C50.3385 28.057 42.9105 28.923 37.2562 25.269C36.4186 24.728 34.4477 23.109 34.0435 22.463C34.2516 22.041 38.1341 18.284 38.3523 18.203C38.7827 18.463 39.3216 19.122 39.7761 19.509C40.3111 19.964 40.7475 20.266 41.4202 20.597C45.6556 22.675 50.798 20.535 52.231 16.714C55.3361 8.437 45.2705 2.552 39.1567 8.601L25.6421 22.04C23.8954 23.771 22.4072 25.47 19.4599 26.674C10.4833 30.34 0.999917 24.136 0.181395 15.505C-0.394788 9.448 2.62188 4.19 7.78339 1.654C13.1752 -0.997 19.657 0.00999928 23.9568 4.2L24.7351 4.977L25.0669 5.309C26.5933 6.829 29.1685 9.361 29.5255 9.464C29.8372 9.279 35.0108 4.061 35.6473 3.487C37.5579 1.763 40.843 0.109 44.2649 0.00799973ZM8.94984 8.155C5.36302 11.091 5.29163 16.738 8.98503 19.813C10.4662 21.046 12.957 22.003 15.6006 21.471C18.2653 20.936 19.3664 19.626 20.7923 18.211C21.3725 17.638 24.8969 14.259 25.0357 13.866C24.7773 13.386 21.2307 10.112 20.7571 9.644C19.2558 8.165 18.205 6.975 15.499 6.439C12.8625 5.916 10.4803 6.902 8.94984 8.155Z" fill="#1253A2"/>
</svg>
