<svg width="15" height="13" viewBox="0 0 15 13" fill="none" xmlns="http://www.w3.org/2000/svg">
<path fill-rule="evenodd" clip-rule="evenodd" d="M11.9225 6.67275L0.570351 6.6677C0.257868 6.66756 0.00465965 6.41413 0.00479889 6.10165L0.00481415 6.09706C0.00751495 5.78097 0.263979 5.52585 0.580086 5.52482L11.9083 5.48781L7.46458 1.01632C7.2348 0.78511 7.23109 0.412918 7.45621 0.17717C7.67467 -0.0515976 8.03722 -0.0599585 8.26598 0.158497C8.26909 0.161465 8.27216 0.164468 8.2752 0.167505L13.8712 5.75741C14.0665 5.95257 14.0667 6.26915 13.8716 6.46452L13.8699 6.46617L8.18908 12.1003C7.95853 12.329 7.58627 12.3274 7.35761 12.0969C7.35446 12.0937 7.35134 12.0905 7.34826 12.0872C7.11805 11.8443 7.12341 11.4621 7.36033 11.2257L11.9225 6.67275Z" fill="white"/>
</svg>
